<?xml version="1.0" encoding="utf-8"?>
<!-- Generator: Adobe Illustrator 25.2.1, SVG Export Plug-In . SVG Version: 6.00 Build 0)  -->
<svg version="1.1" id="Capa_1" xmlns="http://www.w3.org/2000/svg" xmlns:xlink="http://www.w3.org/1999/xlink" x="0px" y="0px"
	 viewBox="0 0 1886.2 146.5" style="enable-background:new 0 0 1886.2 146.5;" xml:space="preserve">
<style type="text/css">
	.st0{fill:#23FF00;}
	.st1{fill:#2BF600;}
	.st2{fill:#0AFD00;}
</style>
<g>
	<g id="Capa_2_1_">
		<g id="Capa_1-2">
			<rect x="28.6" y="75.2" class="st0" width="1756.3" height="71.3"/>
			<path class="st1" d="M725.7,102.4l16.3,34.1c2.9,6.2,9.2,10.1,16,10.1h1088c9.8,0,17.7-7.9,17.7-17.6c0-2.7-0.6-5.3-1.7-7.7l0,0
				c-2.9-6.2-9.2-10.1-16-10.1h-80c-6.8,0-13-3.9-16-10l23.1-34.1c-3-6.1-9.2-10-16-10H33c-9.8,0-17.7,7.9-17.7,17.7
				c0,2.6,0.6,5.2,1.7,7.6l0,0c3,6.1,9.2,10,16,10h676.7C716.5,92.3,722.8,96.2,725.7,102.4z"/>
			<path class="st2" d="M790.4,87.9l12.5,24.1c2.3,4.3,8,7.1,14.8,7.1h1048.6c13,0,23.1-9.6,18.8-18l0,0c-2.3-4.3-8-7.1-14.8-7.1
				h-56.4c-6.8,0,3.2-2.8,0.9-7.1l-12.5-24.1c-2.2-4.4-8-7.1-14.8-7.1H32.8c-13,0-23.1,9.6-18.8,18l0,0c2.3,4.4,8,7.1,14.8,7.1
				h746.7C782.4,80.8,788.1,83.6,790.4,87.9z"/>
			<rect x="17.2" y="23" class="st1" width="1751.1" height="52.2"/>
			<path class="st1" d="M134.6,32.2l544,24.1c2.3,4.3,8,7.1,14.8,7.1h1127.4c13,0,23.1-9.6,18.8-18l0,0c-2.2-4.3-8-7.1-14.8-7.1h-80
				c-6.8,0-12.6-2.8-14.8-7.1l-12.5-24.1c-2.3-4.3-8-7.1-14.8-7.1H19.8C6.8,0-3.3,9.6,1,18l0,0c2.3,4.4,8,7.1,14.8,7.1h103.9
				C126.5,25.1,132.3,27.8,134.6,32.2z"/>
		</g>
	</g>
</g>
</svg>
