<svg xmlns="http://www.w3.org/2000/svg" xmlns:xlink="http://www.w3.org/1999/xlink" viewBox="0 0 1886.16 147.28"><defs><style>.cls-1{isolation:isolate;}.cls-2,.cls-3,.cls-4{opacity:0.6;mix-blend-mode:multiply;}.cls-2{fill:url(#linear-gradient);}.cls-3{fill:url(#linear-gradient-2);}.cls-4{fill:url(#linear-gradient-3);}.cls-5{fill:#f66400;}.cls-6{fill:#fd7700;}.cls-7{mix-blend-mode:color-dodge;fill:url(#linear-gradient-4);}</style><linearGradient id="linear-gradient" x1="4953.95" y1="-12743.43" x2="5149.16" y2="-12743.43" gradientTransform="translate(-4893.38 12837.1)" gradientUnits="userSpaceOnUse"><stop offset="0" stop-color="#c8c8c8"/><stop offset="0.05" stop-color="#cdcdcd"/><stop offset="0.43" stop-color="#e8e8e8"/><stop offset="0.75" stop-color="#f9f9f9"/><stop offset="1" stop-color="#fff"/></linearGradient><linearGradient id="linear-gradient-2" x1="4984.92" y1="-12727.41" x2="5089.67" y2="-12727.41" gradientTransform="translate(-4880.32 12805.07)" xlink:href="#linear-gradient"/><linearGradient id="linear-gradient-3" x1="4540.7" y1="-13370.49" x2="4208.76" y2="-12571.97" gradientTransform="translate(5176.32 -12649.51) rotate(180)" xlink:href="#linear-gradient"/><linearGradient id="linear-gradient-4" x1="3980.4" y1="-13195.86" x2="4275.82" y2="-12490.9" gradientTransform="translate(-3180.37 12797.07)" gradientUnits="userSpaceOnUse"><stop offset="0" stop-color="#424242"/><stop offset="0.16" stop-color="#323232"/><stop offset="0.49" stop-color="#171717"/><stop offset="0.78" stop-color="#060606"/><stop offset="1"/></linearGradient></defs><g class="cls-1"><g id="Capa_2" data-name="Capa 2"><g id="Capa_1-2" data-name="Capa 1"><rect class="cls-2" x="34.81" y="73.21" width="213.34" height="41.18" transform="translate(282.95 187.6) rotate(180)"/><rect class="cls-3" x="90.77" y="57.2" width="114.48" height="41.18" transform="translate(296.02 155.57) rotate(180)"/><path class="cls-4" d="M60,108.11,74.5,138.36a15.71,15.71,0,0,0,14.17,8.92H1765.5a15.72,15.72,0,0,0,14.17-22.5h0a15.73,15.73,0,0,0-14.17-8.92H264.05a15.71,15.71,0,0,1-14.17-8.92L235.39,76.7a15.72,15.72,0,0,0-14.17-8.93H15.73A15.72,15.72,0,0,0,1.56,90.27h0a15.71,15.71,0,0,0,14.17,8.92H45.84A15.71,15.71,0,0,1,60,108.11Z"/><path class="cls-5" d="M194,90.9l14.49,30.24a15.7,15.7,0,0,0,14.17,8.92H1850.49a15.71,15.71,0,0,0,14.17-22.49h0a15.73,15.73,0,0,0-14.17-8.92h-71a15.71,15.71,0,0,1-14.17-8.92l20.48-30.25a15.71,15.71,0,0,0-14.17-8.92H50.82a15.71,15.71,0,0,0-14.16,22.5h0A15.7,15.7,0,0,0,50.82,82h129A15.71,15.71,0,0,1,194,90.9Z"/><path class="cls-6" d="M251.4,78.06l11.12,21.43c2,3.87,7.13,6.32,13.17,6.32h1592.9c11.56,0,20.51-8.55,16.67-15.94h0c-2-3.86-7.12-6.32-13.17-6.32h-50c-6,0,2.82-2.46.82-6.32L1811.75,55.8c-2-3.87-7.13-6.33-13.17-6.33H50.68c-11.56,0-20.51,8.56-16.68,16h0c2,3.86,7.13,6.32,13.17,6.32H238.23C244.28,71.74,249.4,74.2,251.4,78.06Z"/><rect class="cls-5" x="36.81" y="20.45" width="1744.74" height="46.33" transform="translate(1818.35 87.22) rotate(180)"/><path class="cls-5" d="M141,28.59,152.13,50c2,3.86,7.13,6.32,13.17,6.32H1828.15c11.56,0,20.51-8.55,16.67-15.94h0c-2-3.87-7.12-6.32-13.17-6.32h-71c-6,0-11.16-2.46-13.17-6.32L1736.34,6.32c-2-3.86-7.13-6.32-13.18-6.32H39.15C27.59,0,18.64,8.55,22.47,15.94h0c2,3.87,7.13,6.32,13.17,6.32h92.21C133.89,22.26,139,24.72,141,28.59Z"/><rect class="cls-7" x="220.12" y="59.48" width="1555.7" height="28.6" transform="translate(1995.95 147.56) rotate(180)"/></g></g></g></svg>